<?xml version="1.0" encoding="utf-8"?>
<!DOCTYPE svg PUBLIC "-//W3C//DTD SVG 1.0//EN" "http://www.w3.org/TR/2001/REC-SVG-20010904/DTD/svg10.dtd">
<svg version="1.0" xmlns="http://www.w3.org/2000/svg" width="1024px" height="1024px" viewBox="0 0 1024 1024" preserveAspectRatio="xMidYMid meet">
 <g fill="#292a2e">
  <path d="M0 512 l0 -512 512 0 512 0 0 512 0 512 -512 0 -512 0 0 -512z m674.4 297.8 c-4.2 -12.1 -13.9 -22 -26.1 -27 l-5.8 -2.3 -140.5 -0.5 c-138.2 -0.5 -140.6 -0.5 -143.9 -2.5 -5.9 -3.5 -7.5 -6.7 -7.9 -15.5 -0.4 -7.7 -0.4 -7.8 3.1 -11.7 l3.5 -3.8 147 -0.3 c128 -0.2 147.2 -0.4 148.2 -1.7 0.9 -1.1 3.3 -1.5 8.4 -1.5 4.6 -0.1 7.8 -0.6 9 -1.5 1.1 -0.8 3 -1.5 4.2 -1.5 1.2 0 2.7 -0.7 3.4 -1.5 0.7 -0.8 2.1 -1.5 3.1 -1.5 2.8 0 18.1 -15.7 22.2 -22.7 9.1 -15.8 9.5 -31.7 1 -47.6 -4.3 -8.2 -15.5 -18.7 -24.3 -23.1 -13.6 -6.6 -13.1 -6.6 -96.2 -6.6 l-74.7 0 0.9 3 c2.8 9.7 11.9 20.5 21.6 25.7 10.9 5.8 9.2 5.6 74.6 6.2 l60.8 0.6 3.7 3.8 c3.7 3.6 3.8 3.9 4.1 12 0.4 9.5 -1.3 13.7 -6.8 17.5 l-3.3 2.2 -145.1 0 c-137.1 0 -159.1 0.4 -165.1 2.8 -20 8.2 -31.6 20.2 -36.9 38.1 -6.1 20.7 5.7 45.8 27 57.7 13.9 7.8 1.2 7.3 176.1 7.3 l156.2 0.1 -1.5 -4.2z m-172.4 -282.2 l0 -77.3 -5 -3.1 c-6.9 -4.3 -9 -8.9 -8.9 -20.2 0 -9.6 0.7 -11.4 6.4 -16.3 6.6 -5.6 9.9 -6.7 19.3 -6.7 7.3 0 9.1 0.4 12.8 2.5 5.9 3.4 9.3 9.5 10.1 17.7 0.8 9.5 -1.4 16.4 -7.2 21.7 -2.4 2.2 -4.9 4.1 -5.5 4.1 -0.7 0 -1 24.8 -0.9 75.8 0 68.7 0.2 75.2 1.5 70.7 11 -36.8 22.9 -63.5 40.2 -89.9 9.8 -14.9 21 -28.5 37 -44.8 12.3 -12.6 14.3 -15 13.7 -17 -0.4 -1.3 -3.8 -8 -7.6 -15 -14.8 -27.1 -25.1 -52.5 -32.8 -80.8 -3.2 -11.6 -6.9 -30.7 -7.6 -39 -0.3 -4.1 -0.8 -9 -1.1 -10.7 l-0.5 -3.3 -49.2 0.1 c-27.1 0 -51.2 0.4 -53.7 0.7 l-4.5 0.7 -1.1 10.1 c-2.8 23.4 -9.7 50.4 -19.4 75.3 -7.2 18.7 -12.8 30.7 -23.8 51.2 -2.9 5.3 -5.2 10.6 -5.2 11.9 0 1.6 3.7 6 12.7 14.9 36.1 36 59.4 75 74.2 124.1 2.3 7.4 4.4 15 4.7 16.8 0.3 1.7 0.8 3.2 1 3.2 0.2 0 0.4 -34.8 0.4 -77.4z m88.9 -256.1 c4.7 -5.4 5.3 -8.9 4.9 -31 -0.3 -22.2 -0.7 -23.6 -7.1 -27.5 -3.1 -1.9 -5.6 -2 -76.7 -2 l-73.5 0.1 -4.5 4 -4.5 4.1 0 23.8 c0 26.3 -0.1 25.7 7 30.1 2.8 1.8 6.7 1.9 77.1 1.9 l74.2 0 3.1 -3.5z"/>
 </g>
 <g fill="#478e8a">
  <path d="M354 815.2 c-19.1 -5 -35.7 -21.5 -40.5 -40 -2.1 -8.2 -2.1 -22.1 0.1 -29.2 5.3 -18.1 16.9 -30 36.9 -38.2 6 -2.4 28 -2.8 165.1 -2.8 l145.1 0 3.3 -2.2 c5 -3.5 7.2 -8.3 6.7 -14.6 -0.3 -4.6 -0.9 -5.9 -4.1 -9 l-3.6 -3.7 -60.8 -0.6 c-45.2 -0.4 -61.7 -0.9 -64.7 -1.8 -11.8 -3.8 -22.6 -12.3 -27.9 -22.1 -3 -5.5 -5.9 -14.8 -5 -16.2 0.3 -0.4 35.5 -0.8 78.2 -0.8 86.4 0 85.6 0 99.2 6.6 9.6 4.8 20.3 15.2 24.8 24.2 8.4 17.1 7.9 36.2 -1.5 52.5 -4.1 7 -19.4 22.7 -22.2 22.7 -1 0 -2.4 0.7 -3.1 1.5 -0.7 0.8 -2.2 1.5 -3.4 1.5 -1.2 0 -3.1 0.7 -4.2 1.5 -1.2 0.9 -4.4 1.4 -9 1.5 -5.1 0 -7.5 0.4 -8.4 1.5 -1 1.3 -20.2 1.5 -148.2 1.7 l-147 0.3 -3.5 3.9 c-3.3 3.5 -3.5 4.2 -3.1 8.8 0.6 5.6 3 9.4 7.9 12.3 3.3 2 5.7 2 143.9 2.5 l140.5 0.5 5.8 2.3 c9.2 3.7 17 10.4 22.5 19.1 2 3.2 6.2 14.9 6.2 17.2 0 0.5 -66.4 0.9 -159.7 0.8 -147.3 0 -160.3 -0.1 -166.3 -1.7z"/>
  <path d="M499.8 613 c-8.3 -32.5 -15.4 -52.4 -26.8 -75.2 -13.3 -26.4 -31.2 -50.8 -54.3 -73.8 -16.7 -16.7 -16.7 -16.5 -5.9 -36 21.8 -39.7 37.1 -85 41.6 -123.4 l1.1 -10.1 4.5 -0.7 c2.5 -0.3 28 -0.7 56.7 -0.7 l52.2 -0.1 0.5 3.3 c0.3 1.7 0.8 6.6 1.1 10.7 0.7 8.3 4.4 27.4 7.6 39 7.8 28.9 18.2 53.9 35.3 85.8 8.6 15.9 8.8 15.2 -8.7 33.1 -7.9 8 -17.9 19.1 -22.4 24.7 -26.6 33.5 -45.3 72.8 -56.9 119.4 -2 8 -4 15.2 -4.5 16 -0.5 0.8 -0.9 -38.8 -0.9 -88.2 0 -60.5 0.3 -89.8 1 -89.8 0.6 0 3.1 -1.9 5.5 -4.1 14 -12.9 5.8 -35.9 -12.7 -35.9 -6.2 0 -10.4 1.7 -16.3 6.7 -5.3 4.6 -6.4 6.8 -6.4 13.3 -0.1 8 2.7 13.3 8.9 17.2 l5 3.1 -0.1 79.1 c-0.1 43.5 -0.4 84.1 -0.8 90.1 l-0.6 11 -3.7 -14.5z"/>
  <path d="M433.5 276.1 c-7.2 -4.4 -7 -3.4 -7 -33.1 l0 -26.8 4.5 -4.1 4.5 -4 72 -0.3 c39.6 -0.1 73.9 -0.2 76.3 -0.1 4.9 0.1 9.6 2.6 12.6 6.6 2 2.7 2.1 4.3 2.4 26 0.4 25.5 -0.1 28.7 -4.9 34.2 l-3.1 3.5 -77.2 0 c-73.3 0 -77.2 -0.1 -80.1 -1.9z"/>
 </g>
</svg>